<?xml version="1.0" encoding="UTF-8" standalone="no"?>
<svg width="1846px" height="505px" viewBox="0 0 1846 505" version="1.1" xmlns="http://www.w3.org/2000/svg" xmlns:xlink="http://www.w3.org/1999/xlink" xmlns:sketch="http://www.bohemiancoding.com/sketch/ns">
    <!-- Generator: Sketch 3.0.4 (8053) - http://www.bohemiancoding.com/sketch -->
    <title>pdfjs</title>
    <desc>Created with Sketch.</desc>
    <defs></defs>
    <g id="Page-1" stroke="none" stroke-width="1" fill="none" fill-rule="evenodd" sketch:type="MSPage">
        <g id="js" sketch:type="MSLayerGroup" transform="translate(1341.000000, 0.000000)">
            <path d="M0,0.498 L504.67,0.498 L504.67,504.94 L0,504.94 L0,0.498 Z" id="Fill-1" fill="#F8DC3F" sketch:type="MSShapeGroup"></path>
            <path d="M132.525,421.677 L171.095,398.335 C178.536,411.528 185.305,422.69 201.541,422.69 C217.104,422.69 226.916,416.602 226.916,392.922 L226.916,231.882 L274.279,231.882 L274.279,393.596 C274.279,442.652 245.524,464.981 203.571,464.981 C165.682,464.981 143.689,445.358 132.525,421.677" id="Fill-3" fill="#2E2F2C" sketch:type="MSShapeGroup"></path>
            <path d="M299.995,416.602 L338.56,394.273 C348.712,410.852 361.906,423.031 385.249,423.031 C404.874,423.031 417.388,413.219 417.388,399.686 C417.388,383.447 404.533,377.695 382.88,368.225 L371.042,363.147 C336.87,348.602 314.202,330.333 314.202,291.765 C314.202,256.242 341.267,229.175 383.558,229.175 C413.668,229.175 435.32,239.664 450.881,267.068 L414.004,290.749 C405.884,276.203 397.09,270.452 383.558,270.452 C369.687,270.452 360.89,279.248 360.89,290.749 C360.89,304.959 369.687,310.711 389.984,319.508 L401.824,324.582 C442.084,341.837 464.752,359.428 464.752,399.009 C464.752,441.639 431.259,464.981 386.264,464.981 C342.283,464.981 313.864,444.007 299.995,416.602" id="Fill-4" fill="#2E2F2C" sketch:type="MSShapeGroup"></path>
        </g>
        <path d="M0,504.572276 L103.794466,504.572276 L103.794466,389.656973 L139.381141,389.656973 C279.50367,389.656973 364.763411,317.000847 364.763411,195.413043 C364.763411,73.82524 280.245059,0.427724451 139.381141,0.427724451 L0,0.427724451 L0,504.572276 Z M103.794466,298.466121 L103.794466,91.6185771 L136.415584,91.6185771 C219.451158,91.6185771 258.003388,125.722473 258.003388,195.413043 C258.003388,264.362225 220.933936,298.466121 136.415584,298.466121 L103.794466,298.466121 Z M445.574816,504.572276 L600.525127,504.572276 C756.216827,504.572276 865.942405,401.519198 865.942405,252.5 C865.942405,103.480802 755.475438,0.427724451 600.525127,0.427724451 L445.574816,0.427724451 L445.574816,504.572276 Z M549.369283,413.381423 L549.369283,91.6185771 L595.335404,91.6185771 C707.28515,91.6185771 758.440994,158.343591 758.440994,252.5 C758.440994,346.656409 707.28515,413.381423 595.335404,413.381423 L549.369283,413.381423 Z M953.426313,504.572276 L1057.22078,504.572276 L1057.22078,351.104743 L1258.13721,351.104743 L1258.13721,258.431112 L1057.22078,258.431112 L1057.22078,91.6185771 L1278.15471,91.6185771 L1278.15471,0.427724451 L953.426313,0.427724451 L953.426313,504.572276 Z" id="PDF" fill="#2F2F2C" sketch:type="MSShapeGroup"></path>
    </g>
</svg>